<svg width="24" height="26" viewBox="0 0 24 26" fill="none" xmlns="http://www.w3.org/2000/svg">
<path d="M8.02167 14.7613L15.99 19.4047M15.9783 6.59468L8.02167 11.238M22.5 4.83301C22.5 6.766 20.933 8.33301 19 8.33301C17.067 8.33301 15.5 6.766 15.5 4.83301C15.5 2.90001 17.067 1.33301 19 1.33301C20.933 1.33301 22.5 2.90001 22.5 4.83301ZM8.5 12.9997C8.5 14.9327 6.933 16.4997 5 16.4997C3.067 16.4997 1.5 14.9327 1.5 12.9997C1.5 11.0667 3.067 9.49968 5 9.49968C6.933 9.49968 8.5 11.0667 8.5 12.9997ZM22.5 21.1663C22.5 23.0993 20.933 24.6663 19 24.6663C17.067 24.6663 15.5 23.0993 15.5 21.1663C15.5 19.2333 17.067 17.6663 19 17.6663C20.933 17.6663 22.5 19.2333 22.5 21.1663Z" stroke="url(#paint0_linear_302_3220)" stroke-width="2" stroke-linecap="round" stroke-linejoin="round"/>
<defs>
<linearGradient id="paint0_linear_302_3220" x1="1.88066" y1="25.6882" x2="28.3386" y2="26.2129" gradientUnits="userSpaceOnUse">
<stop stop-color="#00EEFF"/>
<stop offset="1" stop-color="white"/>
</linearGradient>
</defs>
</svg>
