<svg width="840" height="733" viewBox="0 0 840 733" fill="none" xmlns="http://www.w3.org/2000/svg">
<path d="M624.825 2.44422C602.056 24.8178 579.935 47.0765 559.16 70.6535C571.493 53.1581 584.174 35.8679 597.17 18.7221C597.851 17.8002 597.696 15.0469 595.997 16.1272C585.569 23.0508 576.952 34.0355 568.554 43.2461C555.076 58.0526 539.351 71.4784 527.435 87.5649C515.635 103.43 501.949 117.562 490.421 133.202C495.074 122.32 499.76 111.499 504.004 100.445C504.543 98.9704 502.748 98.1322 501.922 99.369C488.706 119.157 469.281 135.931 454.48 154.688C443.364 168.764 433.452 180.846 425.767 195.581C427.83 183.268 433.489 172.786 439.139 161.127C439.893 159.614 438.66 157.052 436.921 158.784C424.914 170.349 415.281 183.382 404.709 196.138C396.819 205.703 395.803 219.654 394.681 231.377C393.022 249.225 375.542 249.258 363.495 258.716C365.206 254.319 367.354 250 370.004 245.881C370.447 245.246 370.417 243.449 369.2 244.11C346.705 256.246 316.297 284.581 307.379 314.173C307.008 308.7 307.284 303.111 308.887 297.354C309.382 295.508 307.653 294.792 306.49 296.133C298.473 305.61 293.47 317.154 291.153 329.29C289.964 335.374 289.283 341.813 288.779 347.998C287.631 361.705 278.659 367.681 268.292 374.572C260.41 379.797 248.202 383.589 237.788 389.086C240.73 382.602 244.147 376.411 247.861 370.768C248.599 369.658 248.633 366.093 246.419 367.532C227.611 379.636 207.431 389.648 191.359 405.627C184.552 412.397 180.239 421.439 177.099 430.316C174.92 436.465 173.074 442.355 171.862 448.687C171.595 449.936 171.515 451.241 171.435 452.545C168.709 447.089 165.285 442.091 161.015 437.71C164.909 448.365 162.47 463.325 159.916 472.121C158.052 478.414 155.752 484.629 153.324 490.755C151.572 496.672 149.72 502.407 148.041 507.733C141.251 528.76 135.24 547.157 138.139 569.624C143.877 613.721 178.361 649.067 216.13 668.835C235.062 678.733 255.606 674.908 275.674 671.657C298.175 667.951 320.983 659.586 340.321 647.588C356.167 637.722 366.556 622.307 374.868 605.971C380.012 595.847 384.343 585.535 388.857 575.123C393.543 564.302 400.961 556.333 409.157 548.493C410.209 547.528 411.326 544.793 409.497 543.894C402.787 540.681 396.706 540.515 390.767 541.769C399.653 528.668 411.822 521.902 425.167 513.237C437.753 505.063 451.197 493.822 444.744 477.148C442.192 470.415 434.263 462.346 434.598 454.834C434.719 452.009 441.008 450.092 443.304 449.239C449.329 446.835 456.038 441.773 459.443 436.14C463.086 430.221 464.679 424.154 466.045 417.816C466.242 416.291 466.377 414.798 466.419 413.278C466.637 405.987 466.901 398.198 470.114 391.488C475.131 381.276 484.289 373.465 494.323 367.702C490.157 366.417 485.292 366.457 480.359 367.244C488.45 359.934 496.385 352.63 502.455 344.211C507.31 337.476 509.615 328.658 511.764 320.712C513.191 308.824 514.49 296.847 516.729 285.148C512.919 288.872 509.208 292.779 505.623 296.775C507.795 288.581 509.314 280.347 510.418 272.653C512.877 255.554 516.945 238.369 523.278 222.162C526.1 214.875 533.15 205.215 532.905 197.071C532.884 196.452 532.477 195.412 531.62 195.72C525.679 197.842 521.639 203.031 517.621 207.971C518.317 205.623 519.051 203.491 519.64 201.673C523.903 189.348 529.675 177.622 534.253 165.442C539.375 151.941 545.963 138.669 551.367 125.251C555.799 114.253 563.207 105.107 567.645 94.2636C567.928 93.4792 567.982 91.4007 566.511 91.8843C563.23 92.9561 560.126 94.6419 557.004 96.7311C578.37 64.9515 601.254 34.0814 626.769 5.88086C628.382 4.05962 626.791 0.115093 624.482 2.39384L624.825 2.44422Z" fill="#DE3F2C"/>
<path d="M476.235 380.994C465.304 387.718 459.679 395.502 456.382 408.011C452.267 423.803 446.743 436.419 430.55 442.452C429.693 442.76 429.236 442.063 429.364 441.284C434.224 411.767 435.076 381.983 435.431 352.154C428.361 366.713 423.992 382.327 417.739 397.23C417.367 398.142 415.541 399.133 415.516 397.491C415.243 381.166 414.434 364.58 418.107 348.556C419.974 340.527 421.836 332.343 424.703 324.559C427.032 318.251 430.482 312.121 432.528 305.729C420.353 318.724 409.491 332.978 401.064 348.667C400.304 350.026 398.17 350.16 398.942 348.243C406.37 331.44 412.23 314.071 420.321 297.618C427.163 283.656 434.409 269.711 438.485 254.571C426.134 266.953 418.943 283.469 406.884 296.244C406.197 297.011 404.733 296.781 405.156 295.527C412.481 272.002 424.424 250.305 432.942 227.235C420.765 241.099 406.998 253.777 392.89 265.536C378.179 277.781 361.317 289.695 353.152 307.607C352.807 308.425 350.832 309.577 350.929 307.869C351.465 298.986 354.317 290.738 357.765 282.717C347.433 294.318 337.574 307.081 331.394 321.392C326.214 333.191 322.708 345.893 314.562 356.149C313.997 356.85 312.564 357.549 312.544 356.062C312.351 350.335 312.903 344.675 313.019 338.937C308.002 346.39 303.808 354.343 298.156 361.353C297.263 362.468 295.489 362.249 296.239 360.581C302.645 346.541 296.305 331.382 299.5 316.799C301.084 309.554 303.894 302.827 306.798 296.126C306.798 296.126 306.798 296.126 306.737 296.159C298.72 305.636 293.717 317.18 291.4 329.316C290.211 335.4 289.53 341.839 289.026 348.024C287.878 361.732 278.906 367.707 268.538 374.598C260.656 379.824 248.449 383.615 238.034 389.112C240.977 382.628 244.394 376.437 248.108 370.795C248.845 369.685 248.88 366.119 246.666 367.558C227.858 379.662 207.678 389.674 191.605 405.653C184.799 412.423 180.486 421.465 177.346 430.343C175.167 436.491 173.321 442.381 172.109 448.714C171.842 449.963 171.762 451.267 171.682 452.572C168.956 447.116 165.532 442.117 161.262 437.737C165.155 448.391 162.717 463.351 160.163 472.147C158.299 478.44 155.999 484.655 153.571 490.781C151.819 496.698 149.967 502.433 148.287 507.759C141.498 528.786 135.487 547.184 138.386 569.65C144.123 613.748 178.608 649.093 216.377 668.862C235.309 678.76 255.853 674.934 275.921 671.683C298.422 667.977 321.23 659.612 340.568 647.614C356.414 637.749 366.803 622.334 375.115 605.997C380.259 595.874 384.59 585.561 389.104 575.149C393.79 564.328 401.207 556.359 409.404 548.519C410.456 547.554 411.572 544.82 409.744 543.921C403.034 540.707 396.953 540.541 391.013 541.796C399.9 528.694 412.069 521.929 425.414 513.264C438 505.089 451.444 493.848 444.991 477.174C442.438 470.442 434.51 462.372 434.845 454.86C434.966 452.035 441.255 450.118 443.551 449.265C449.576 446.861 456.285 441.799 459.69 436.167C463.333 430.247 464.926 424.181 466.292 417.842C466.489 416.317 466.624 414.825 466.666 413.304C466.884 406.013 467.147 398.225 470.361 391.514C472.592 386.913 475.679 382.872 479.367 379.214C478.333 379.776 477.392 380.366 476.39 380.989L476.235 380.994Z" fill="#E36831"/>
<path d="M403.159 274.142C403.837 272.198 401.771 271.586 400.668 272.894C383.317 292.326 366.662 312.168 351.414 333.295C343.211 344.607 334.636 356.83 328.381 369.842C328.64 367.416 329.12 365.106 328.755 362.546C328.553 361.158 327.153 361.918 326.681 362.647C324.391 366.413 321.57 370.073 319.125 373.844C319.678 370.943 319.987 368.174 320.02 365.476C320.056 363.801 318.338 363.394 317.39 364.697C306.954 378.719 292.427 389.996 280.236 402.528C277.899 404.9 274.792 407.454 271.819 410.251C274.797 404.85 277.677 399.267 278.085 393.922C278.142 392.866 277.21 391.875 276.208 392.498C261.222 401.187 246.105 411.524 233.39 423.236C231.225 425.2 228.105 429.18 225.371 433.581C222.968 426.688 218.651 420.914 213.818 415.498C214.903 420.979 214.637 426.877 212.672 431.097C211.718 433.113 210.42 435.078 208.775 436.839C208.187 437.788 207.351 438.715 206.321 439.432C206.139 439.531 206.017 439.597 205.834 439.697C203.365 441.826 200.636 443.623 197.775 445.176C194.415 447.553 190.961 449.901 187.568 452.216C177.173 459.201 168.068 464.933 160.321 475.051C151.947 485.904 144.845 499.534 142.995 513.544C140.846 509.588 139.141 504.996 138.436 500.65C139.404 506.351 132.587 518.329 131.271 524.324C129.521 532.132 128.488 540.102 128.573 548.096C128.802 564.05 133.206 579.709 139.249 594.32C154.954 632.532 185.339 663.089 224.602 676.607C263.771 690.098 309.099 683.141 343.828 661.603C351.084 657.111 357.916 651.983 364.168 646.223C371.404 637.486 376.863 627.507 383.288 617.712C387.092 611.942 391.255 605.819 396.686 601.451C399.554 599.185 402.554 597.161 405.714 595.288C400.15 596.654 394.444 597.467 388.732 598.125C387.405 598.294 387.867 596.387 388.438 595.841C392.852 591.632 397.911 588.175 402.391 584.087C408.316 578.742 411.145 573.501 412.553 565.642C412.626 565.051 412.732 564.52 412.899 563.957C412.775 562.132 412.591 560.341 412.566 558.699C412.461 552.845 414.393 548.564 416.823 544.328C417.681 540.394 418.728 536.515 419.868 532.664C414.414 531.764 406.417 533.584 401.858 535.35C401.123 535.592 400.453 535.956 399.75 536.258C401.19 532.087 403.071 528.149 408.032 524.51C409.543 523.374 411.275 522.355 412.913 521.307C418.915 513.635 421.535 504.96 420.92 494.102C420.84 492.648 419.806 474.923 419.621 464.856C413.521 468.719 408.69 474.338 404.301 480.189C405.121 470.522 405.04 460.793 404.958 451.063C404.793 436.098 406.943 421.767 407.342 406.969C407.4 405.046 405.301 404.373 404.242 406.051C395.576 419.269 387.565 434.418 381.549 449.902C382.089 444.8 382.757 439.788 383.667 434.643C386.365 420.015 391.547 404.59 391.879 389.67C391.898 388.399 390.854 387.783 389.797 388.594C386.054 391.572 384.234 398.235 382.015 402.278C380.612 404.774 379.114 407.242 377.65 409.771C381.578 396.683 385.66 383.589 390.903 370.889C391.703 368.879 389.993 366.891 388.358 368.961C378.317 381.822 369.108 395.493 359.199 408.598C362.453 401.235 365.485 393.755 368.645 386.365C372.926 376.395 378.671 366.654 382.295 356.489C382.89 354.826 381.366 353.762 380.004 354.738C373.715 359.414 367.865 366.058 362.716 373.268C367.792 354.748 374.228 336.987 381.962 319.151C388.547 303.989 397.597 289.301 403.176 273.739L403.159 274.142Z" fill="#EEA840"/>
<path d="M359.96 503.791C348.724 490.502 356.561 471.113 336.612 464.132C328.707 461.331 324.902 453.308 317.865 450.508C308.032 446.626 296.925 449.977 287.708 445.05C281.235 441.55 275.586 441.307 268.558 442.444C263.625 443.23 259.573 446.219 254.404 446.425C250.473 446.589 246.267 445.956 242.418 446.706C236.412 447.839 230.477 452.875 224.683 452.947C214.953 453.028 207.976 462.098 199.148 465C185.291 469.529 174.424 486.386 167.194 498.037C160.019 509.499 152.113 524.117 156.14 537.774C157.189 541.303 152.718 549.327 152.494 553.705C152.213 559.138 154.612 565.008 157.157 569.695C157.791 571.007 158.457 572.379 159.09 573.69C166.441 589.404 163.091 606.751 176.2 620.441C182.015 626.505 188.335 631.902 194.626 637.392C201.332 643.209 203.928 650.312 212.623 653.552C218.429 655.68 225.819 653.322 231.268 651.309C239.229 648.405 243.127 656.456 249.998 657.061C256.371 657.62 262.75 657.466 269.06 656.168C272.6 655.428 276.297 652.948 279.369 651.201C285.755 647.576 288.744 651.628 294.843 650.523C309.171 648.023 324.391 636.134 333.467 624.978C344.267 611.626 363.517 613.548 369.131 594.42C373.716 578.767 364.985 562.542 371.304 547.761C378.767 530.151 371.422 517.351 360.087 503.88L359.96 503.791Z" fill="#A26B4F"/>
<g style="mix-blend-mode:multiply" opacity="0.3">
<path d="M187.035 520.914C183.209 521.415 180.254 525.7 178.656 528.853C176.797 532.542 176.043 536.814 176.057 540.905C176.034 544.78 177.006 547.878 179.694 550.36C181.303 553.033 183.898 554.619 187.571 553.255C194.243 550.735 197.072 542.736 197.814 536.264C198.601 529.294 195.617 519.88 187.008 521.008L187.035 520.914Z" fill="#381800"/>
<path d="M199.997 616.502C200.703 614.463 200.586 611.926 199.96 609.901C198.575 605.609 194.887 600.123 190.206 599.197C185.493 598.209 184.606 604.996 185.358 607.977C186.22 611.451 188.281 614.666 190.814 617.153C191.69 618.332 192.745 619.258 193.999 619.68C195.733 620.551 197.73 620.019 199.01 618.457C199.276 618.076 199.481 617.728 199.653 617.319C199.653 617.319 199.653 617.319 199.714 617.286C199.83 617.065 199.914 616.784 199.997 616.502Z" fill="#381800"/>
<path d="M243.705 572.749C241.948 569.368 237.989 569.626 236.308 573.061C235.255 574.027 235.103 575.923 235.183 577.377C235.058 579.179 235.336 580.998 235.924 582.807C236.474 584.4 237.926 585.188 239.563 585.008C245.515 585.954 245.307 576.135 243.644 572.782L243.705 572.749Z" fill="#381800"/>
<path d="M241.239 628.16C241.239 628.16 240.985 627.982 240.77 628.02C240.77 628.02 240.582 627.965 240.488 627.937C239.488 627.692 238.855 629.139 238.942 629.88C238.89 631.091 239.909 632.823 241.302 632.776C242.602 632.701 243.57 632.017 243.302 630.507C243.144 629.49 242.156 628.687 241.178 628.193L241.239 628.16Z" fill="#381800"/>
<path d="M306.643 613.604C305.252 612.783 303.1 613.321 301.959 614.414C300.431 615.953 299.499 617.72 299.262 619.898C299.162 620.583 299.216 621.263 299.27 621.943C299.28 622.253 299.371 624.017 299.357 622.684C299.404 624.077 299.594 626.024 300.802 626.944C302.331 628.163 303.78 627.928 305.086 627.14C308.708 626.986 310.208 622.782 309.949 619.691C309.776 617.342 308.731 614.835 306.61 613.543L306.643 613.604Z" fill="#381800"/>
<path d="M320.735 569.146C319.699 567.817 317.61 567.454 316.215 568.369C314.272 569.581 313.064 571.42 312.363 573.613C311.356 576.84 310.769 580.548 312.82 583.454C314.385 585.757 317.977 583.806 319.191 582.123C320.909 579.771 321.952 577.628 321.726 574.598C321.693 574.537 321.627 574.416 321.594 574.355C321.649 574.167 321.644 574.012 321.7 573.824C321.896 572.299 321.678 570.446 320.769 569.206L320.735 569.146Z" fill="#381800"/>
<path d="M282.57 525.871C282.57 525.871 282.339 525.445 282.207 525.202C281.942 524.715 281.622 524.415 281.269 524.055C280.911 523.541 280.524 523.12 280.138 522.699C278.5 520.988 276.183 521.221 274.566 522.887C274.178 523.334 273.884 523.809 273.59 524.284C272.76 524.498 271.946 525.177 271.501 526.679C269.839 531.602 272.657 535.195 276.2 538.237C277.956 539.727 280.535 540.849 282.622 539.321C284.438 538.02 285.045 535.799 285.065 533.659C285.042 531.15 284.047 528.301 282.57 525.871Z" fill="#381800"/>
<path d="M249.865 505.556C249.865 505.556 249.766 505.374 249.76 505.219C249.694 505.097 249.689 504.942 249.623 504.821C249.623 504.821 249.623 504.821 249.656 504.881C249.59 504.76 249.618 504.666 249.551 504.544C249.139 503.349 247.758 502.838 246.619 503.063C244.711 503.468 243.624 505.24 242.968 506.936C242.968 506.936 242.941 507.03 242.913 507.124C242.457 508.317 242.67 510.015 243.508 510.978C244.347 511.942 245.458 511.811 246.531 511.465C246.879 511.67 247.316 511.749 247.769 511.423C248.771 510.8 249.293 509.729 249.378 508.579C249.778 507.574 249.863 506.424 249.738 505.468L249.865 505.556Z" fill="#381800"/>
<path d="M249.868 505.556C249.769 505.374 249.67 505.191 249.665 505.036C249.698 505.097 249.764 505.219 249.736 505.313C249.802 505.435 249.835 505.496 249.84 505.65L249.868 505.556Z" fill="#381800"/>
<path d="M236.187 476.888C234.771 477.184 233.341 478.906 233.422 480.36C233.43 481.537 233.726 482.953 235.125 483.061C237.054 483.275 238.434 481.027 238.565 479.38C238.672 477.982 237.785 476.493 236.187 476.888Z" fill="#381800"/>
<path d="M327.695 496.323C326.067 497.68 325.057 499.884 325.097 501.99C325.117 503.477 325.583 505.352 326.736 506.46C327.209 507.622 328.048 508.585 329.119 509.107C329.66 509.523 330.041 509.789 330.76 509.95C331.854 510.223 332.967 509.225 333.621 508.397C334.784 507.056 335.158 505.276 335.161 503.54C335.168 502.827 335.142 502.053 335.055 501.312C335.224 502.64 335.062 500.599 334.952 500.107C334.279 496.689 331.1 493.45 327.662 496.262L327.695 496.323Z" fill="#381800"/>
<path d="M336.435 483.54C336.435 483.54 336.385 483.883 336.39 484.038C336.251 484.507 336.343 485.403 337.057 485.41C338.361 485.49 338.613 483.776 338.427 482.853C338.192 481.404 336.592 482.667 336.468 483.601L336.435 483.54Z" fill="#381800"/>
<path d="M357.137 541.112C357.137 541.112 357.137 541.112 357.17 541.173C357.247 541.605 357.191 541.794 357.137 541.112Z" fill="#381800"/>
<path d="M355.077 536.315C352.929 535.116 350.906 537.634 350.074 539.583C349.136 541.196 348.402 543.328 349.328 545.033C349.559 545.459 349.758 545.824 350.111 546.184C350.478 547.876 351.393 549.271 353.24 548.899C355.978 548.279 356.929 545.241 357.083 542.477C357.161 542.04 357.179 541.637 357.196 541.233C357.18 540.769 357.093 540.028 357.055 539.812C357.017 539.596 356.945 539.32 356.874 539.043C356.683 537.965 356.215 536.958 355.171 536.342L355.077 536.315Z" fill="#381800"/>
<path d="M227.551 538.64C227.551 538.64 227.015 538.379 226.705 538.389C225.65 538.332 224.747 539.137 224.314 540.082C224.314 540.082 224.225 540.209 224.258 540.27C223.709 541.435 223.551 543.176 224.843 543.814C224.843 543.814 224.876 543.875 224.97 543.903C227.433 545.245 230.108 540.01 227.612 538.606L227.551 538.64Z" fill="#381800"/>
<path d="M186.641 574.648C186.206 573.702 185.131 574.916 185.246 575.563C185.318 575.84 185.356 576.056 185.366 576.365C185.596 577.659 187.351 576.391 186.911 575.29C186.812 575.107 186.679 574.864 186.641 574.648Z" fill="#381800"/>
<path d="M191.773 580.454C189.594 581.086 188.086 583.244 187.944 585.45C187.819 587.252 189.042 589.504 191.221 588.872C193.4 588.241 194.908 586.082 195.05 583.877C195.175 582.075 193.952 579.822 191.834 580.421L191.773 580.454Z" fill="#381800"/>
<path d="M213.416 615.68L213.162 615.502C212.461 614.937 211.841 615.826 211.74 616.511C211.745 616.666 211.717 616.76 211.662 616.948C211.331 619.098 214.857 617.026 213.389 615.774L213.416 615.68Z" fill="#381800"/>
<path d="M216.848 636.204C216.848 636.204 216.317 636.098 216.068 636.075C215.44 634.919 213.83 635.872 213.397 636.817C212.592 638.673 213.453 642.146 215.464 642.946C216.469 643.346 217.621 642.563 217.96 641.591C218.648 639.956 218.764 636.976 216.815 636.143L216.848 636.204Z" fill="#381800"/>
<path d="M297.264 593.004C295.145 593.602 293.759 595.695 293.584 597.84C293.486 599.548 294.616 601.772 296.734 601.174C298.852 600.575 300.238 598.482 300.414 596.338C300.511 594.63 299.321 592.438 297.264 593.004Z" fill="#381800"/>
<path d="M331.461 592.96C331.23 592.534 330.915 592.39 330.45 592.405C330.417 592.345 330.23 592.289 330.136 592.261C329.417 592.099 328.736 593.021 328.442 593.496C327.91 594.258 327.631 595.197 327.972 596.116C328.418 597.371 330.11 597.004 330.769 596.331C331.489 595.625 332.277 594.172 331.687 593.231C331.654 593.171 331.621 593.11 331.555 592.988L331.461 592.96Z" fill="#381800"/>
<path d="M354.357 578.243C353.687 578.607 353.117 579.153 352.613 579.821C352.613 579.821 352.552 579.854 352.524 579.948C352.197 580.362 351.936 580.897 351.675 581.433C351.675 581.433 351.587 581.56 351.559 581.654C351.498 581.687 351.503 581.842 351.475 581.936C351.392 582.218 351.248 582.532 351.103 582.847C351.015 582.974 351.02 583.129 350.931 583.256C350.931 583.256 350.931 583.256 350.903 583.35C350.597 584.383 350.512 585.533 351.013 586.601C352.153 589.135 355.471 588.279 356.769 586.313C356.83 586.28 356.857 586.186 356.946 586.059C357.212 585.678 357.39 585.424 357.506 585.203C358.515 583.867 359.142 582.265 358.897 580.507C358.542 578.256 356.46 577.18 354.451 578.271L354.357 578.243Z" fill="#381800"/>
</g>
<g style="mix-blend-mode:multiply">
<path d="M359.964 503.794C348.728 490.505 356.565 471.116 336.616 464.135C334.296 463.345 332.424 462.076 330.608 460.619C330.641 460.679 330.674 460.74 330.707 460.801C332.198 464.563 330.605 467.871 328.51 470.98C333.591 473.66 341.138 475.946 342.735 481.936C344.437 488.263 341.263 494.322 340.107 500.467C340.107 500.467 348.479 502.384 349.743 503.116C351.008 503.848 351.45 506.84 351.614 508.012C352.648 513.835 353.034 519.773 353.233 525.656C353.226 526.369 352.727 527.192 351.992 527.433C347.217 529.238 342.532 530.915 338.386 533.876C341.943 541.008 343.252 550.386 334.494 554.433C327.749 557.544 315.051 551.433 310.925 558.639C307.908 563.825 306.503 569.947 303.171 574.988C301.902 576.86 297.449 578.095 295.513 578.595C292.687 579.341 290.903 578.813 290.734 583.003C290.608 585.672 291.034 588.2 291.123 590.831C291.369 598.107 281.638 601.814 275.93 603.495C273.568 604.226 273.479 601.594 272.592 600.105C270.988 597.587 268.841 592.763 266.251 591.331C263.44 589.784 260.516 589.48 257.744 588.148C252.613 585.811 253.196 581.08 252.664 576.324C251.837 569.286 242.46 566.968 236.774 565.642C232.149 564.527 228.78 565.726 228.156 571.109C227.736 574.254 227.536 577.515 227.768 580.7C228.027 583.791 228.202 588.031 231.211 589.944C234.06 591.707 237.321 591.907 240.426 592.98C253.127 597.354 239.233 609.943 235.845 615.172C235.579 615.553 234.948 616.132 234.385 615.965C228.876 614.385 223.201 616.127 220.215 610.339C219.654 609.304 217.557 601.378 216.239 602.724C214.112 604.904 211.941 606.713 209.395 608.411C208.847 608.708 208.106 608.795 207.958 608.088C206.582 602.214 205.439 598.657 201.074 594.249C198.796 591.939 198.505 590.678 198.644 587.45C198.73 585.432 199.696 583.726 200.379 581.936C202.024 577.417 195.982 571.082 191.766 570.139C183.052 568.172 179.315 591.482 173.473 596.546C172.992 596.965 171.952 597.372 171.705 596.482C168.444 584.38 178.222 567.405 162.87 561.632C156.12 559.071 158.732 554.736 162.14 550.127C160.402 548.233 159.312 546.224 160.55 543.424C161.871 540.342 163.541 537.465 164.326 534.122C164.872 531.933 161.409 527.587 159.996 526.147C158.358 524.436 157.123 522.742 156.319 520.972C154.865 526.569 154.501 532.284 156.143 537.777C157.192 541.306 152.722 549.33 152.498 553.707C152.217 559.141 154.616 565.011 157.161 569.698C157.794 571.01 158.461 572.382 159.094 573.693C166.444 589.407 163.094 606.753 176.203 620.444C182.019 626.508 188.338 631.904 194.63 637.395C201.336 643.212 203.931 650.315 212.627 653.554C218.433 655.683 225.823 653.325 231.272 651.312C239.232 648.408 243.131 656.459 250.001 657.063C256.374 657.623 262.754 657.469 269.064 656.171C272.603 655.431 276.301 652.95 279.372 651.204C285.759 647.578 288.747 651.631 294.847 650.525C309.175 648.026 324.394 636.136 333.47 624.981C344.27 611.629 363.521 613.55 369.135 594.423C373.72 578.77 364.988 562.545 371.307 547.764C378.77 530.154 371.426 517.354 360.091 503.882L359.964 503.794Z" fill="#A26B4F"/>
</g>
<g style="mix-blend-mode:multiply">
<path d="M370.229 518.478C370.951 525.179 373.277 531.641 370.805 538.264C370.038 540.336 368.017 541.985 366.356 543.281C359.474 548.752 363.201 554.453 364.299 561.266C364.664 563.826 363.764 566.522 362.599 568.731C360.241 573.243 360.826 576.788 361.463 581.88C362.041 586.138 362.093 590.444 359.521 594.127C354.909 600.73 348.894 604.312 341.458 607.167C336.9 608.933 331.496 610.448 327.698 613.614C323.567 617.039 324.804 620.624 322.834 624.689C321.619 627.241 318.05 628.942 315.77 630.259C312.759 631.973 310.018 634.328 306.815 635.831C301.475 638.336 296.932 637.808 291.778 635.72C291.078 637.913 290.499 640.04 290.174 642.345C290.073 643.03 289.419 643.858 288.706 643.851C279.18 644.452 269.713 651.406 260.196 650.426C251.021 649.496 245.882 639.597 235.857 643.779C232.465 645.227 223.072 648.83 220.516 643.833C219.486 641.791 219.352 639.657 218.66 637.511C217.292 632.815 212.833 637.522 209.802 638.616C203.462 640.876 200.919 638.08 198.37 632.37C196.928 629.133 195.621 624.404 192.48 622.248C188.957 619.825 185.218 618.309 181.257 616.676C172.579 613.034 169.505 607.372 165.751 599.007C165.652 598.824 165.552 598.642 165.453 598.459C167.174 606.274 169.631 613.846 176.026 620.542C181.841 626.606 188.16 632.002 194.452 637.493C201.158 643.31 203.754 650.413 212.449 653.652C218.255 655.781 225.645 653.423 231.094 651.41C239.054 648.506 242.953 656.557 249.823 657.161C256.196 657.721 262.576 657.567 268.886 656.269C272.426 655.529 276.123 653.048 279.194 651.302C285.581 647.676 288.569 651.729 294.669 650.623C308.997 648.124 324.216 636.234 333.293 625.079C344.092 611.727 363.343 613.648 368.957 594.521C373.542 578.868 364.81 562.643 371.129 547.862C375.927 536.665 374.623 527.442 370.173 518.666L370.229 518.478Z" fill="#A26B4F"/>
</g>
<g style="mix-blend-mode:screen">
<path d="M310.8 484.219C312.03 483 324.611 474.67 324.677 474.792C323.705 471.695 322.638 468.569 321.328 465.576C313.683 462.239 304.497 464.626 296.826 460.516C291.618 457.747 287.064 454.151 282.926 450.014C274.761 449.639 266.641 452.393 258.452 453.135C252.396 451.852 240.944 450.504 236.584 452.635C222.154 459.446 207.164 469.871 191.65 473.96C183.447 476.128 176.274 492.24 171.056 498.306C167.416 502.489 166.912 508.675 167.454 514.607C166.868 520.206 167.417 525.426 168.689 530.962C169.773 527.299 171.356 523.681 172.538 521.068C175.414 514.462 178.035 511.305 185.295 510.594C195.181 509.64 203.157 507.201 209.441 517.031C211.111 519.671 212.443 522.415 213.687 525.287C214.937 519.169 217.375 513.353 221.255 508.014C224.453 503.598 228.004 499.541 231.583 495.391C232.209 494.657 223.662 480.223 222.765 478.425C222.302 477.573 222.945 476.435 223.831 476.033C233.624 471.425 243.13 463.819 254.002 461.778C255.789 461.439 257.398 461.353 258.89 461.489C258.89 461.489 259.012 461.423 259.072 461.39C259.133 461.357 259.194 461.324 259.316 461.257C259.443 461.346 259.631 461.402 259.758 461.49C265.727 462.032 270.243 465.413 276.04 469.122C277.117 469.799 275.898 471.328 275.228 471.691C269.263 474.931 262.423 478.881 257.913 483.931C251.282 491.315 264.016 498.509 261.796 506.178C259.432 514.162 252.889 521.419 258.745 529.59C260.046 531.405 261.53 533.122 263.041 534.744C263.933 533.629 264.5 532.061 264.464 530.977C263.949 522.192 266.045 516.325 269.929 508.383C269.38 509.548 281.317 514.259 282.008 514.514C299.285 519.478 292.615 535.79 300.956 547.813C302.147 543.619 303.084 539.248 305.446 535.759C307.985 532.016 311.129 529.678 315.02 527.407C317.482 525.991 320.194 524.598 322.425 522.756C327.037 518.911 324.739 515.115 322.479 511.534C322.248 511.107 321.989 510.775 321.697 510.382C319.849 507.996 317.125 504.431 314.86 500.695C314.209 499.787 313.559 498.879 312.936 497.878C309.695 492.78 306.065 488.997 310.866 484.341L310.8 484.219Z" fill="#A26B4F"/>
</g>
<g style="mix-blend-mode:screen">
<path d="M277.962 549.025C267.096 544.837 254.351 543.718 242.915 542.834C240.521 542.636 239.469 546.36 238.978 549.228C232.418 547.745 220.711 547.087 218.099 551.422C213.286 559.395 214.745 571.372 210.665 579.972C215.374 583.563 220.209 587.243 223.65 591.838C227.35 596.765 227.141 602.475 227.058 608.274C227.119 608.241 227.24 608.174 227.301 608.141C230.778 605.544 235.208 604.558 238.463 601.844C233.55 598.601 228.077 595.345 224.974 590.646C222.521 586.855 221.9 582.226 221.565 577.836C221.171 572.612 219.703 556.699 228.41 556.621C234.204 556.549 239.956 557.997 245.52 559.39C248.521 560.125 254.74 559.822 256.654 562.33C258.534 564.777 259.015 567.984 259.424 570.915C259.795 573.63 258.347 582.14 261.921 583.352C268.694 585.665 274.596 589.712 281.414 591.527C282.038 586.143 282.161 579.692 280.2 575.791C278.504 572.377 271.265 573.707 273.837 567.266C275.781 562.427 276.466 557.011 278.471 552.139C278.843 551.227 279.156 549.481 277.962 549.025Z" fill="#A26B4F"/>
</g>
<g style="mix-blend-mode:overlay" opacity="0.5">
<path d="M374.928 570.392C374.928 570.392 356.914 598.617 338.053 612.8L346.943 588.819C346.943 588.819 346.211 590.084 344.736 592.303C340.96 601.606 336.393 610.47 329.833 618.13C315.855 634.627 293.685 647.217 271.847 648.514C234.262 650.715 208.818 620.55 196.331 587.683C197.334 600.853 202.008 617.153 215.417 633.282C215.417 633.282 174.305 606.343 171.998 554.629C171.998 554.629 160.469 596.831 205.861 649.506C205.861 649.506 134.872 609.785 136.853 523.583C136.853 523.583 122.696 576.04 163.383 626.147C204.069 676.253 255.472 686.727 307.195 670.936C307.195 670.936 354.033 657.326 373.457 617.616C373.457 617.616 342.8 648.687 321.066 655.838C321.066 655.838 359.619 632.775 374.806 570.458L374.928 570.392Z" fill="#FFFAD0"/>
</g>
<g style="mix-blend-mode:overlay" opacity="0.5">
<path d="M352.336 352.11C352.819 350.823 351.377 350.345 350.635 351.3C341.044 362.813 330.084 373.257 319.792 384.206C312.912 391.567 305.806 398.657 298.319 405.482C294.498 408.896 289.1 416.084 292.406 407.51C292.861 406.317 292.562 403.879 290.675 404.903C270.947 415.458 256.402 433.524 241.517 449.804C242.748 444.958 244.846 440.114 246.557 435.717C247.441 433.424 245.967 429.259 243.115 431.99C236.485 438.506 230.778 445.704 223.833 452.076C222.3 453.46 220.766 454.845 219.232 456.23C221.555 449.766 223.693 444.27 224.161 442.518C224.406 441.518 223.702 439.93 222.489 440.746C192.628 460.508 174.015 486.615 168.585 522.195C168.233 524.594 171.163 524.185 171.852 522.55C175.577 514.458 179.809 506.721 184.704 499.334C183.656 504.08 182.918 508.817 183.422 513.666C183.558 514.932 185.089 515.283 185.865 514.389C189.038 511.089 191.755 507.092 194.278 502.884C193.414 509.422 194.756 516.103 196.613 522.425C198.299 528.288 199.063 536.228 202.951 541.211C203.856 542.296 205.29 540.729 205.447 539.855C211.513 518.512 217.79 499.733 230.363 481.083C230.363 481.083 238.639 469.18 235.54 476.538C233.014 482.481 229.542 487.992 227.143 494.024C223.944 502.067 219.846 508.311 218.995 517.05C218.832 518.636 220.573 518.794 221.343 517.745C230.193 506.319 236.198 494.152 246.754 483.69C247.745 482.758 252.074 476.939 250.869 479.801C248.403 485.711 244.877 491.409 242.35 497.353C237.786 508.108 234.1 519.173 230.789 530.351C228.425 538.334 223.549 549.967 225.324 558.462C225.615 559.723 226.975 559.615 227.69 558.754C245.28 535.409 259.35 508.773 275.731 484.508C280.571 477.308 285.852 470.342 291.167 463.436C292.857 461.178 306.559 444.752 302.95 456.25C299.791 466.399 292.591 478.978 293.234 489.743C293.353 491.413 295.322 490.974 296.003 490.052C300.431 484.416 304.572 478.542 308.364 472.463C308.935 469.158 308.855 470.463 308.003 476.442C307.351 481.92 306.827 487.485 306.175 492.963C304.394 508.117 297.917 524.64 298.562 540.053C298.615 541.601 300.151 542.107 301.098 540.805C307.213 531.888 309.932 520.638 315.091 510.979C318.214 505.263 320.256 498.716 322.81 492.679C324.331 489.094 325.169 484.54 326.393 480.408C327.956 487.205 328.19 495.039 329.399 501.476C331.808 514.04 334.156 526.638 336.349 539.24C336.852 542.199 340.194 540.226 340.657 538.32C342.117 532.009 342.161 523.236 343.773 515.898C344.441 531.063 344.239 547.094 347.639 561.485C348.188 563.946 350.979 564.006 352.337 562.008C359.09 551.799 365.068 538.858 366.949 526.644C369.613 509.197 365.76 491.505 365.943 473.987C366.003 471.195 363.1 471.51 362.024 473.592C358.106 481.474 358.199 490.645 356.249 498.956C355.079 491.866 356.452 482.057 356.032 476.058C354.862 460.693 354.73 445.789 354.305 430.492C354.248 428.789 352.783 428.559 351.769 429.74C348.55 433.538 346.691 437.227 344.488 441.734C341.908 446.997 337.193 467.056 340.181 450.93C343.007 435.523 345.073 418.716 351.751 404.449C352.85 402.118 350.359 400.87 349.072 403.145C345.771 409.115 341.018 414.297 337.497 420.15C335.118 424.043 333.689 428.523 331.31 432.416C333.012 429.6 333.32 424.94 333.867 421.884C337.067 404.698 346.183 390.132 351.3 373.717C351.611 372.839 350.811 372.091 349.997 372.77C348.187 374.226 338.896 381.793 339.38 380.506C343.075 370.617 348.636 361.843 352.242 352.082L352.336 352.11Z" fill="#FFFAD0"/>
</g>
<g style="mix-blend-mode:overlay" opacity="0.8">
<path d="M517.454 152.806C507.958 167.106 498.456 181.251 489.401 195.784C484.992 202.907 481.716 210.518 477.91 218.024C480.729 212.473 483.665 203.076 486.526 196.005C492.33 181.582 501.103 166.966 505.249 152.103C503.3 154.028 501.256 155.926 499.213 157.824C492.966 163.738 487.138 170.134 481.692 176.797C479.168 181.004 476.795 185.052 474.621 188.597C465.622 202.942 455.894 216.816 447.651 231.538C445.823 236.156 444.25 240.952 443.141 245.732C446.558 242.3 448.866 238.13 451.902 234.432C452.467 233.731 460.899 218.196 456.853 226.857C452.229 236.777 445.929 247.528 444.062 258.315C443.777 259.968 445.602 259.844 446.316 258.983C452.909 251.383 461.598 243.434 467.279 235.462C462.518 242.225 458.811 249.913 456.225 257.78C453.89 264.802 451.24 271.679 448.905 278.701C447.357 290.656 446.118 302.6 444.973 314.571C446.382 312.23 447.569 309.772 448.851 307.342C450.148 305.377 462.333 284.415 458.73 292.441C457.259 295.683 455.795 298.212 454.545 301.571C450.65 311.962 445.753 322.976 443.499 334.21C448.062 327.082 453.354 320.425 458.552 313.74C458.94 313.293 460.423 312.251 460.559 313.517C462.209 326.572 463.71 342.546 457.988 354.797C453.908 363.396 450.919 371.246 451.31 380.965C451.483 386.074 452.12 391.166 452.818 396.226C453.706 388.571 455.124 381.022 458.554 374.273C458.842 373.644 459.258 373.103 459.579 372.534C459.635 372.346 459.658 372.097 459.652 371.943C459.891 371.656 460.162 371.429 460.4 371.142C466.41 361.889 475.845 356.765 483.374 348.421C491.141 339.79 491.022 332.603 486.397 322.345C484.355 317.858 482.457 313.056 484.213 308.161C486.764 301.101 492.125 295.588 494.704 288.434C496.232 284.136 497.667 279.811 499.007 275.457C494.529 278.677 489.957 281.869 485.219 284.757C484.306 285.253 483.516 284.814 483.728 283.753C488.363 259.483 503.254 239.731 513.987 217.982C507.851 220.762 501.69 224.658 495.866 229.319C499.141 216.19 501.568 201.788 507.725 190.484C508.308 189.379 508.857 188.214 509.501 187.076C511.398 180.844 513.262 174.551 515.501 168.369C519.618 157.227 524.139 146.102 528.853 135.187C524.194 140.397 520.426 148.118 517.449 152.651L517.454 152.806Z" fill="#FFFAD0"/>
</g>
<path d="M174.084 308.634C174.084 308.634 173.396 305.992 166.829 301.815C166.829 301.815 162.877 300.966 158.79 303.41L156.731 306.678C156.731 306.678 149.734 309.685 146.623 313.403C146.623 313.403 145.05 321.45 149.743 327.267C154.436 333.083 170.841 334.499 170.841 334.499L174.092 308.647L174.084 308.634Z" fill="#5B254E"/>
<path d="M170.847 334.478L170.791 334.475C170.791 334.475 170.791 334.475 170.744 334.485C170.492 334.511 169.699 334.557 168.622 334.487C165.184 334.259 158.835 332.772 157.485 325.117C155.602 314.513 164.322 310.867 164.322 310.867C165.82 309.971 168.351 305.761 168.351 305.761C170.81 305.129 173.722 308.208 174.068 308.607C174.097 308.626 174.105 308.639 174.105 308.639C176.391 321.02 172.832 331.772 172.832 331.772L170.847 334.478Z" fill="#985965"/>
<path d="M158.807 303.401C158.807 303.401 159.636 304.548 163.128 305.494C166.628 306.453 168.333 305.755 168.333 305.755L164.656 310.614C164.656 310.614 159.73 309.776 156.726 306.664L158.786 303.396L158.807 303.401Z" fill="#461642"/>
<path d="M146.637 313.396C146.637 313.396 148.209 319.275 152.277 322.823C156.344 326.371 157.788 326.489 157.788 326.489C157.788 326.489 159.331 333.601 170.841 334.499C170.841 334.499 161.894 336.245 150.189 328.25C150.189 328.25 144.482 324.558 146.637 313.396Z" fill="#461642"/>
<path d="M170.772 334.469L170.746 334.484L168.623 334.486C165.186 334.258 158.837 332.771 157.486 325.116C155.603 314.512 164.324 310.866 164.324 310.866C165.822 309.97 168.352 305.76 168.352 305.76C170.811 305.128 173.723 308.207 174.07 308.606C173.739 308.322 171.356 306.427 169.425 306.868C167.345 307.327 167.109 309.2 164.335 312.198C161.554 315.183 157.098 322.527 160.464 328.066C163.627 333.262 169.987 334.349 170.772 334.469Z" fill="#B06979"/>
<path d="M548.925 484.228C548.925 484.228 550.832 486.181 558.606 486.554C558.606 486.554 562.46 485.333 564.797 481.184L564.966 477.325C564.966 477.325 569.552 471.245 570.411 466.474C570.411 466.474 567.788 458.705 560.829 455.98C553.871 453.254 538.921 460.157 538.921 460.157L548.912 484.22L548.925 484.228Z" fill="#5B254E"/>
<path d="M538.925 460.178L538.974 460.153C538.974 460.153 538.974 460.153 539.01 460.121C539.216 459.973 539.883 459.54 540.852 459.067C543.951 457.562 550.202 455.706 555.17 461.685C562.062 469.961 556.295 477.45 556.295 477.45C555.438 478.971 555.327 483.882 555.327 483.882C553.505 485.649 549.45 484.419 548.951 484.243C548.917 484.242 548.903 484.234 548.903 484.234C540.781 474.615 538.542 463.512 538.542 463.512L538.925 460.178Z" fill="#985965"/>
<path d="M564.789 481.197C564.789 481.197 563.501 480.612 559.999 481.521C556.483 482.423 555.349 483.875 555.349 483.875L556.133 477.832C556.133 477.832 560.827 476.118 564.979 477.333L564.81 481.191L564.789 481.197Z" fill="#461642"/>
<path d="M570.401 466.488C570.401 466.488 566.12 462.161 560.829 461.096C555.538 460.03 554.225 460.644 554.225 460.644C554.225 460.644 549.36 455.232 538.918 460.157C538.918 460.157 545.823 454.206 559.953 455.347C559.953 455.347 566.739 455.726 570.401 466.488Z" fill="#461642"/>
<path d="M538.995 460.147L539.011 460.12L540.853 459.067C543.952 457.562 550.203 455.706 555.17 461.685C562.062 469.961 556.295 477.45 556.295 477.45C555.439 478.97 555.328 483.881 555.328 483.881C553.505 485.649 549.45 484.419 548.951 484.243C549.379 484.326 552.388 484.791 553.846 483.451C555.426 482.021 554.702 480.278 555.625 476.299C556.561 472.327 556.791 463.74 551.121 460.599C545.799 457.653 539.737 459.862 538.995 460.147Z" fill="#B06979"/>
<path d="M310.405 134.775C310.405 134.775 311.723 135.158 315.262 133.397C315.262 133.397 316.656 131.897 316.656 129.493L315.768 127.747C315.768 127.747 316.289 123.92 315.476 121.608C315.476 121.608 312.381 118.836 308.643 119.357C304.889 119.877 300.017 126.645 300.017 126.645L310.405 134.775Z" fill="#5B254E"/>
<path d="M300.018 126.645L300.018 126.614C300.018 126.614 300.033 126.614 300.048 126.584C300.109 126.461 300.293 126.109 300.6 125.665C301.596 124.226 303.894 121.852 307.571 123.261C312.673 125.206 311.984 129.937 311.984 129.937C311.984 130.825 313.148 133.014 313.148 133.014C312.781 134.254 310.682 134.714 310.421 134.76C310.406 134.76 310.39 134.76 310.39 134.76C304.415 132.54 300.661 128.191 300.661 128.191L300.002 126.629L300.018 126.645Z" fill="#985965"/>
<path d="M316.657 129.493C316.657 129.493 315.952 129.555 314.619 130.825C313.286 132.096 313.148 133.03 313.148 133.03L311.999 130.167C311.999 130.167 313.638 128.238 315.783 127.748L316.672 129.493L316.657 129.493Z" fill="#461642"/>
<path d="M315.477 121.608C315.477 121.608 312.504 120.766 309.915 121.608C307.31 122.45 306.881 123.047 306.881 123.047C306.881 123.047 303.387 121.868 300.001 126.646C300.001 126.646 301.564 122.297 308.091 119.296C308.091 119.296 311.186 117.78 315.477 121.608Z" fill="#461642"/>
<path d="M300.048 126.614L300.6 125.68C301.596 124.241 303.894 121.868 307.571 123.277C312.673 125.221 311.984 129.952 311.984 129.952C311.984 130.84 313.148 133.03 313.148 133.03C312.781 134.27 310.682 134.729 310.421 134.775C310.636 134.699 312.076 134.163 312.382 133.214C312.719 132.188 311.969 131.606 311.386 129.615C310.82 127.625 308.782 123.782 305.503 123.812C302.423 123.843 300.293 126.324 300.033 126.63L300.048 126.614Z" fill="#B06979"/>
</svg>
