<svg width="485" height="548" viewBox="0 0 485 548" fill="none" xmlns="http://www.w3.org/2000/svg">
<path d="M338.087 194.673L335.819 191.45L346.777 183.78C347.244 183.452 347.51 182.9 347.508 182.252C347.512 181.545 347.163 180.799 346.596 180.289L330.077 165.307C329.721 164.981 329.221 164.877 328.818 165.057L322.407 167.782L320.858 164.16L327.27 161.435C329.099 160.668 331.225 161.04 332.715 162.385L349.234 177.367C350.627 178.618 351.423 180.396 351.426 182.227C351.43 184.153 350.522 185.927 349.019 186.969L338.061 194.64L338.087 194.673Z" fill="#938373"/>
<path d="M363.154 228.033L360.886 224.811L371.843 217.14C372.31 216.813 372.577 216.26 372.574 215.612C372.578 214.906 372.229 214.159 371.662 213.649L355.143 198.667C354.788 198.341 354.287 198.237 353.885 198.417L347.473 201.143L345.925 197.521L352.336 194.795C354.165 194.028 356.292 194.4 357.781 195.745L374.3 210.727C375.693 211.979 376.489 213.757 376.492 215.587C376.496 217.513 375.588 219.288 374.085 220.33L363.128 228L363.154 228.033Z" fill="#938373"/>
<path d="M365.808 260.418L410.012 273.988L410.803 272.295L364.113 252.382L365.808 260.418Z" fill="#BFB1A6"/>
<path d="M345.477 233.878L344.594 252.473L365.526 236.556L371.368 222.505L345.477 233.878Z" fill="#BFB1A6"/>
<path d="M301.619 179.202L302.155 192.366L321.43 181.93L327.506 167.811L301.619 179.202Z" fill="#BFB1A6"/>
<path d="M338.032 211.298L337.145 229.874L358.06 217.052L363.923 199.925L338.032 211.298Z" fill="#BFB1A6"/>
<path d="M345.658 217.321L359.384 229.134L371.275 222.621L357.68 211.429L345.658 217.321Z" fill="#D8D0C5"/>
<path d="M283.636 158.826L307.136 179.05L327.465 167.896L304.196 148.768L283.636 158.826Z" fill="#D8D0C5"/>
<path d="M320.073 190.84L343.574 211.065L363.903 199.911L340.634 180.782L320.073 190.84Z" fill="#D8D0C5"/>
<path d="M270.363 368.196L391.087 485.502L472.443 412.208L472.584 408.248L270.104 364.244L270.363 368.196Z" fill="#DD8C43"/>
<path d="M219.226 61.6721L229.302 202.043L235.783 200.104L221.628 59.4487L219.226 61.6721Z" fill="#BFB1A6"/>
<path d="M271.452 155.959L252.661 164.88L328.254 309.157L345.658 293.66L372.618 258.218L371.526 236.702L284.529 156.253L271.452 155.959Z" fill="#EFE8E1"/>
<path d="M255.444 170.19L299.976 255.205C310.39 254.669 321.309 253.263 332.451 250.913C346.617 247.926 359.848 243.687 371.635 238.588L371.547 236.718L285.147 156.83C274.213 160.624 264.22 165.153 255.444 170.19Z" fill="#FFFCF3"/>
<path d="M197.972 233.846L169.811 207.222L164.845 209.089L193.062 237.609L197.972 233.846Z" fill="#5E525C"/>
<path d="M203.868 187.09L205.597 183.578L9.08432 115.043L7.73782 118.189L130.991 242.229L203.868 187.09Z" fill="#DD8C43"/>
<path d="M205.98 183.497L88.2906 62.8804L8.68174 115.414L131.541 236.677L205.98 183.497Z" fill="#F4C15D"/>
<path d="M89.2156 63.8114L69.3303 175.286L131.542 236.677L138.694 231.564L156.34 132.617L89.2156 63.8114Z" fill="#FFF0A9"/>
<path d="M252.662 164.883L267.975 168.521L356.553 252.833L359.132 268.694L328.255 309.159L312.245 309.483L236.963 212.067L252.662 164.883Z" fill="#BFB1A6"/>
<path d="M262.087 189.255C255.623 186.917 249.969 186.43 245.125 187.509L236.958 212.046L312.24 309.462L328.249 309.138L339.364 294.586C342.875 245.337 291.971 200.083 262.083 189.236L262.087 189.255Z" fill="#938373"/>
<path d="M301.131 269.477L296.274 317.427L316.982 299.899L301.131 269.477Z" fill="#D8D0C5"/>
<path d="M253.271 189.549L243.279 189.366L171.743 231.347L249.185 328.117L325.852 262.355L324.765 252.664L253.271 189.549Z" fill="#EFE8E1"/>
<path d="M176.001 236.666L192.535 257.349C204.673 250.917 217.818 243.453 231.436 235.24C247.004 225.834 261.398 216.485 273.899 207.783L253.298 189.598C241.756 195.771 229.313 202.839 216.479 210.6C201.725 219.51 188.032 228.368 176.005 236.684L176.001 236.666Z" fill="#FFFCF3"/>
<path d="M234.415 365.189L298.702 314.245L325.85 262.358L255.293 314.433L236.741 332.651L234.415 365.189Z" fill="#BFB1A6"/>
<path d="M225.389 365.943L154.626 295.406L171.743 231.346L180.962 231.5L252 304.25L255.295 314.428L234.416 365.184L225.389 365.943Z" fill="#9E9385"/>
<path d="M221.752 357.228L161.578 297.239L176.136 242.741L183.975 242.881L244.377 304.769L247.176 313.411L229.425 356.583L221.752 357.228Z" fill="#352D35"/>
<path d="M245.979 353.304C252.497 355.173 259.517 353.788 264.875 349.606L314.805 310.541C318.468 307.67 319.136 302.398 316.29 298.706L245.979 353.304Z" fill="#D8D0C5"/>
<path d="M282.739 311.601L314.09 340.28L319.105 338.555L287.867 308.231L282.739 311.601Z" fill="#5E525C"/>
<path d="M251.964 345.48C254.085 343.468 255.369 341.481 254.822 341.062C254.27 340.625 252.112 341.919 249.991 343.931C247.869 345.942 246.585 347.93 247.133 348.349C247.684 348.786 249.842 347.491 251.964 345.48Z" fill="#938373"/>
<path d="M312.737 280.134C314.858 278.123 316.143 276.135 315.595 275.716C315.044 275.279 312.886 276.574 310.764 278.585C308.643 280.597 307.358 282.584 307.906 283.003C308.458 283.44 310.615 282.146 312.737 280.134Z" fill="#938373"/>
<path d="M261.513 319.051C263.634 317.039 264.919 315.052 264.371 314.633C263.823 314.214 261.662 315.49 259.54 317.502C257.419 319.513 256.134 321.501 256.682 321.92C257.233 322.357 259.391 321.062 261.513 319.051Z" fill="#938373"/>
<path d="M289.948 313.398C297.317 306.408 301.778 299.516 299.894 298.024C298.01 296.533 290.51 300.995 283.123 307.989C275.736 314.983 271.293 321.872 273.177 323.363C275.061 324.854 282.561 320.392 289.948 313.398Z" fill="#352D35"/>
<path d="M292.663 316.467C296.349 312.981 295.29 306.871 294.35 306.134C293.41 305.398 289.668 307.618 285.981 311.104C282.295 314.59 280.074 318.034 281.014 318.77C281.954 319.507 288.977 319.953 292.663 316.467Z" fill="#5E525C"/>
<path d="M270.255 364.497L391.263 480.885L472.585 408.246L345.596 309.696L270.255 364.497Z" fill="#F4C15D"/>
<path d="M345.594 309.695L342.444 312L327.471 419.539L391.261 480.884L394.258 478.211L410.678 360.199L345.594 309.695Z" fill="#FFF0A9"/>
<path d="M216.686 283.37C214.652 280.079 210.941 278.725 204.235 281.779C197.507 284.82 193.712 289.969 195.742 293.242C197.776 296.533 204.881 296.732 211.586 293.678C218.314 290.638 218.72 286.661 216.686 283.37Z" fill="#5E525C"/>
<path d="M192.292 265.261C190.258 261.97 186.546 260.617 179.841 263.671C173.113 266.711 169.318 271.861 171.348 275.133C173.381 278.424 180.486 278.624 187.192 275.569C193.92 272.529 194.325 268.552 192.292 265.261Z" fill="#5E525C"/>
<path d="M233.145 319.671C231.112 316.38 227.553 315.299 221.285 319.158C215.017 323.017 211.57 328.818 213.604 332.109C215.637 335.4 222.372 334.933 228.64 331.075C234.908 327.216 235.179 322.962 233.145 319.671Z" fill="#5E525C"/>
<path d="M217.502 305.67C200.572 273.759 170.651 252.313 152.024 260.285C150.758 260.819 134.315 268.978 134.315 268.978L140.562 274.28C136.389 288.799 141.537 311.215 155.02 332.407C170.022 355.988 190.969 370.914 206.847 371.324L210.846 377.31L220.257 367.027C230.099 355.605 231.604 332.244 217.502 305.67Z" fill="#D8D0C5"/>
<path d="M176.652 335.058C179.363 347.915 197.102 355.067 216.289 351.021C220.394 350.156 224.215 348.854 227.696 347.204C228.659 335.613 225.752 321.194 217.521 305.667C217.105 304.877 216.675 304.109 216.246 303.341C213.08 303.398 209.804 303.746 206.469 304.449C187.3 308.491 173.941 322.2 176.652 335.058Z" fill="#BFB1A6"/>
<path d="M194.457 315.47C203.271 313.612 211.129 310.123 217.468 305.601C203.285 278.91 180.028 259.569 161.92 258.656C147.653 267.063 139.361 280.295 142.049 293.043C145.781 310.741 169.237 320.769 194.453 315.452L194.457 315.47Z" fill="#EFE8E1"/>
<path d="M206.422 314.57C188.482 281.232 156.925 258.834 137.387 267.207C117.868 275.577 120.233 310.483 140.974 342.582C160.066 372.129 188.113 388.591 204.919 381.423C221.739 374.233 222.925 345.274 206.407 314.592L206.422 314.57Z" fill="#9E9385"/>
<path d="M278.546 363.894L390.973 474.079L466.742 407.419L345.59 316.947L278.546 363.894Z" fill="#404666"/>
<path d="M284.385 365.16L392.059 468.87L462.006 407.367L346.242 321.844L284.385 365.16Z" fill="#5D6689"/>
<path d="M352.317 326.326C347.328 347.598 338.225 375.136 321.806 401.203L389.679 466.57C389.595 435.036 406.188 403.439 423.6 378.994L352.317 326.326Z" fill="#9ABCDB"/>
<path d="M197.323 182.387L88.4369 70.3861L17.499 115.388L131.623 231.263L197.323 182.387Z" fill="#404666"/>
<path d="M190.289 47.7275L220.679 73.9388L223.361 72.9536L224.032 60.432L205.137 45.436L190.289 47.7275Z" fill="#EFE8E1"/>
<path d="M203.852 315.279C187.21 284.375 157.946 263.592 139.849 271.357C121.753 279.121 123.942 311.47 143.176 341.235C160.878 368.634 186.875 383.906 202.466 377.242C218.058 370.578 219.173 343.733 203.852 315.279Z" fill="#493F48"/>
<path d="M201.924 318.378C186.819 290.317 160.839 271.131 145.134 277.8C129.429 284.468 131.895 313.592 149.241 340.665C165.214 365.586 188.244 379.768 201.777 374.053C215.328 368.334 215.831 344.212 201.924 318.378Z" fill="#352D35"/>
<path d="M203.853 315.278C187.211 284.375 157.947 263.592 139.85 271.356C130.758 275.257 126.799 285.344 127.519 298.202C145.726 292.684 173.47 313.063 189.509 342.834C196.271 355.391 199.829 367.631 200.363 377.972C201.084 377.763 201.784 377.539 202.468 377.242C218.059 370.578 219.174 343.732 203.853 315.278Z" fill="#352D35"/>
<path d="M200.172 316.438C186.212 290.443 159.909 272.45 146.672 277.931C133.452 283.408 136.627 309.903 152.482 335.078C167.09 358.245 187.335 371.927 198.729 367.235C210.124 362.543 213.007 340.361 200.154 316.441L200.172 316.438Z" fill="#5E525C"/>
<path d="M196.978 333.69C183.017 307.696 156.715 289.703 143.477 295.184C141.505 296.001 139.902 297.292 138.648 298.968C139.749 309.457 144.514 322.434 152.483 335.08C167.091 358.248 187.336 371.929 198.73 367.237C201.459 366.109 203.69 363.979 205.336 361.076C204.849 352.957 202.237 343.474 196.978 333.69Z" fill="#BFB1A6"/>
<path d="M144.762 313.623C147.061 319.624 150.2 325.887 154.087 332.068C166.338 351.498 182.541 364.257 194.184 365.102C192.126 358.974 189.204 352.647 185.426 346.443C173.941 327.557 157.847 315.137 144.762 313.623Z" fill="#D8D0C5"/>
<path d="M268.323 202.838L256.266 210.378L280.634 236.715L249.264 257.236L207.041 216.39L206.875 216.234L199.098 215.299L197.225 216.399L206.277 217.485L249.101 258.911L282.66 236.974L258.296 210.656L269.338 203.75L268.323 202.838Z" fill="#84766A"/>
<path d="M229.257 250.411L222.19 256.384L258.088 292.288L314.595 253.552L311.876 248.098L229.257 250.411Z" fill="#D8D0C5"/>
<path d="M279.682 220.32L229.023 250.116L260.954 283.365L312.06 247.79L279.682 220.32Z" fill="#FFFCF3"/>
<path d="M193.472 181.805L87.9638 73.8424L21.2346 116.202L132.186 227.195L193.472 181.805Z" fill="#5D6689"/>
<path d="M63.9254 158.914L106.833 201.829C115.298 173.529 130.303 148.657 143.441 130.626L104.515 90.8017C96.648 106.233 84.0698 128.094 63.9215 158.896L63.9254 158.914Z" fill="#9ABCDB"/>
<path d="M297.039 352.897L294.555 355.694L408.718 456.451L411.203 453.654L297.039 352.897Z" fill="#404666"/>
<path d="M314.596 340.836L312.172 343.685L426.866 440.641L429.291 437.792L314.596 340.836Z" fill="#404666"/>
<path d="M330.004 329.802L327.727 332.77L446.027 422.947L448.305 419.98L330.004 329.802Z" fill="#404666"/>
<path d="M438.147 387.611L366.523 446.188L368.896 449.074L440.52 390.497L438.147 387.611Z" fill="#404666"/>
<path d="M415.071 370.299L343.32 424.923L345.591 427.889L417.342 373.265L415.071 370.299Z" fill="#404666"/>
<path d="M388.938 351.391L319.062 402.242L321.268 405.257L391.144 354.406L388.938 351.391Z" fill="#404666"/>
<path d="M367.48 333.767L299.73 381.872L301.9 384.912L369.65 336.808L367.48 333.767Z" fill="#404666"/>
<path d="M75.3022 80.2546L72.5586 82.7998L177.985 195.766L180.728 193.221L75.3022 80.2546Z" fill="#404666"/>
<path d="M56.696 90.8314L54.0078 93.4346L163.292 205.601L165.981 202.998L56.696 90.8314Z" fill="#404666"/>
<path d="M39.1592 103.21L36.4688 105.811L146.671 219.117L149.361 216.516L39.1592 103.21Z" fill="#404666"/>
<path d="M111.816 95.8449L45.7148 142.262L47.8687 145.313L113.97 98.8963L111.816 95.8449Z" fill="#404666"/>
<path d="M133.754 118.677L67.5664 164.743L69.7075 167.804L135.895 121.738L133.754 118.677Z" fill="#404666"/>
<path d="M155.366 140.262L90.8125 187.671L93.0311 190.676L157.585 143.267L155.366 140.262Z" fill="#404666"/>
<path d="M175.688 161.742L111.723 208.719L113.941 211.724L177.907 164.747L175.688 161.742Z" fill="#404666"/>
<path d="M265.75 274.687C263.349 275.193 260.914 274.448 259.218 272.669L244.451 257.279C242.807 255.566 242.046 253.227 242.372 250.869C242.698 248.512 244.066 246.468 246.126 245.252L272.706 229.613C275.602 227.915 279.48 228.242 282.024 230.414L297.385 243.447C298.904 244.748 299.757 246.705 299.658 248.69C299.56 250.676 298.521 252.554 296.887 253.7L268.328 273.571C267.544 274.118 266.684 274.49 265.75 274.687ZM275.671 231.239C275.084 231.363 274.536 231.574 274.024 231.872L247.444 247.511C246.082 248.313 245.181 249.667 244.954 251.222C244.726 252.776 245.245 254.327 246.328 255.472L261.096 270.861C262.569 272.401 265.05 272.641 266.805 271.431L295.364 251.561C296.349 250.876 296.959 249.774 297.013 248.58C297.067 247.386 296.557 246.235 295.664 245.45L280.303 232.418C279.021 231.334 277.302 230.895 275.653 231.243L275.671 231.239Z" fill="#84766A"/>
<path d="M340.632 180.782L329.44 186.251C331.945 194.498 343.263 201.611 357.488 203.171C357.624 203.18 357.76 203.19 357.896 203.199L363.902 199.911L340.632 180.782Z" fill="#EFE8E1"/>
<path d="M292.71 154.375C294.621 160.172 301.566 166.242 310.994 169.653C314.123 170.786 317.245 171.52 320.208 171.868L327.467 167.896L304.198 148.767L292.713 154.393L292.71 154.375Z" fill="#EFE8E1"/>
<path d="M357.68 211.428L356.518 211.998C355.787 213.163 355.385 214.43 355.416 215.759C355.478 220.229 360.146 223.937 366.574 225.195L371.294 222.616L357.68 211.428Z" fill="#EFE8E1"/>
</svg>
